<svg width="16" height="16" viewBox="0 0 16 16" fill="none" xmlns="http://www.w3.org/2000/svg">
	<path
		d="M0.00762463 12.6271C-0.0262794 12.887 0.0528755 13.113 0.244758 13.3051L2.49752 15.5423C2.59915 15.6553 2.73181 15.7514 2.89554 15.8304C3.05928 15.9095 3.22016 15.9604 3.37819 15.9829C3.38949 15.9829 3.42344 15.9858 3.47993 15.9915C3.53631 15.9971 3.60971 16 3.70004 16C3.91465 16 4.26191 15.9633 4.74182 15.8898C5.22173 15.8163 5.80889 15.6355 6.5033 15.3474C7.19787 15.0593 7.98546 14.627 8.86622 14.0508C9.74697 13.4746 10.6842 12.6836 11.6779 11.6779C12.4684 10.8983 13.1233 10.1525 13.6428 9.44069C14.1622 8.7288 14.58 8.07061 14.8962 7.46609C15.2124 6.86157 15.4495 6.31355 15.6076 5.82202C15.7657 5.3305 15.873 4.90677 15.9294 4.55084C15.9859 4.19491 16.0085 3.91525 15.9972 3.71186C15.9859 3.50847 15.9802 3.39547 15.9802 3.37288C15.9577 3.21468 15.9068 3.05367 15.8278 2.88983C15.7488 2.72598 15.6528 2.59322 15.5398 2.49152L13.2871 0.237288C13.129 0.0790959 12.9483 0 12.7451 0C12.5983 0 12.4684 0.0423728 12.3555 0.127118C12.2426 0.211864 12.1466 0.316384 12.0675 0.440677L10.2552 3.88135C10.1535 4.06214 10.1253 4.25988 10.1705 4.47457C10.2156 4.68926 10.3116 4.87005 10.4584 5.01694L11.2884 5.84745C11.311 5.87005 11.3307 5.90677 11.3477 5.95762C11.3646 6.00846 11.3731 6.05084 11.3731 6.08473C11.3279 6.32202 11.2263 6.59321 11.0682 6.89829C10.9327 7.16948 10.7238 7.49999 10.4415 7.88982C10.1592 8.27965 9.75832 8.72877 9.23888 9.23724C8.73074 9.75707 8.27906 10.161 7.88383 10.4492C7.4887 10.7372 7.15829 10.9491 6.89293 11.0847C6.62757 11.2203 6.42431 11.3022 6.28319 11.3304L6.07152 11.3728C6.04893 11.3728 6.01215 11.3643 5.96139 11.3474C5.91057 11.3304 5.87388 11.3107 5.85126 11.288L4.88582 10.305C4.68245 10.1242 4.44543 10.0338 4.17439 10.0338C3.98237 10.0338 3.83001 10.0677 3.71709 10.1355H3.70018L0.431161 12.0677C0.193945 12.2147 0.0528202 12.4011 0.00762463 12.6271Z"/>
</svg>
