<svg width="170" height="48" viewBox="0 0 170 48" fill="none" xmlns="http://www.w3.org/2000/svg">
	<path
		d="M4.73396 4.74075H11.3277L11.4122 35.3863H16.0617V0H4.73396V4.74075ZM0 7.28043V12.0212H4.64943V35.3863H9.29886V7.28043H0ZM25.3605 18.1164C25.3605 11.4286 30.0099 4.74075 38.0408 4.74075C45.9871 4.65609 50.6365 11.1746 50.721 18.1164H55.3705C55.3705 8.04234 48.0159 0.0846562 38.0408 0.0846562C28.0656 0.0846562 20.7111 8.55027 20.7111 18.1164C20.7111 27.5979 28.5728 34.8783 38.0408 34.8783H124.267V30.1376H38.0408C30.6862 30.1376 25.3605 24.127 25.3605 18.1164ZM38.0408 22.7725C35.3357 22.7725 32.7151 20.7408 32.7151 18.1164C32.7151 14.8148 34.7439 12.1058 38.0408 12.1058C41.3376 12.1058 43.3665 14.8148 43.3665 18.1164H48.0159C48.0159 12.1058 43.3665 7.36509 37.9562 7.36509C32.3769 7.36509 27.9811 12.0212 28.0656 17.4392C28.0656 22.9418 32.4615 27.4286 38.0408 27.4286H124.267V22.7725H38.0408Z"
		fill="#B31117"/>
	<path d="M170 5.16406H128.747V46.4763H170V5.16406Z" fill="#B31117"/>
	<path
		d="M160.955 27.9365C160.279 27.9365 159.771 28.4445 159.771 29.1217C159.771 29.799 160.279 30.3069 160.955 30.3069C161.631 30.3069 162.138 29.799 162.138 29.1217C162.138 28.4445 161.631 27.9365 160.955 27.9365Z"
		fill="#FFE872"/>
	<path
		d="M160.955 24.8047C159.771 24.8047 158.588 25.3126 157.742 26.1592C157.404 26.4978 157.404 27.0057 157.742 27.3444C157.911 27.5137 158.165 27.5983 158.334 27.5983C158.588 27.5983 158.757 27.5137 158.926 27.3444C159.433 26.8364 160.194 26.4978 160.955 26.4978C161.716 26.4978 162.392 26.7518 162.984 27.3444C163.322 27.683 163.829 27.683 164.167 27.3444C164.505 27.0057 164.505 26.4978 164.167 26.1592C163.322 25.3126 162.138 24.8047 160.955 24.8047Z"
		fill="#FFE872"/>
	<path
		d="M166.111 23.8732C164.759 22.5187 162.899 21.7568 160.955 21.7568C159.01 21.7568 157.235 22.5187 155.798 23.8732C155.46 24.2119 155.46 24.7198 155.798 25.0584C155.967 25.2277 156.221 25.3124 156.39 25.3124C156.643 25.3124 156.812 25.2277 156.982 25.0584C157.996 24.0426 159.433 23.45 160.87 23.45C162.307 23.45 163.744 24.0426 164.759 25.0584C165.097 25.3971 165.604 25.3971 165.942 25.0584C166.449 24.7198 166.449 24.2119 166.111 23.8732Z"
		fill="#FFE872"/>
	<path
		d="M144.386 25.3125H144.047C143.54 25.3125 143.202 25.7358 143.202 26.1591C143.202 26.667 143.625 27.0056 144.047 27.0056H144.386C144.893 27.0056 145.231 26.5823 145.231 26.1591C145.231 25.6511 144.808 25.3125 144.386 25.3125Z"
		fill="#FFE872"/>
	<path
		d="M148.021 25.3125H147.683C147.176 25.3125 146.837 25.7358 146.837 26.1591C146.837 26.667 147.26 27.0056 147.683 27.0056H148.021C148.528 27.0056 148.866 26.5823 148.866 26.1591C148.866 25.6511 148.444 25.3125 148.021 25.3125Z"
		fill="#FFE872"/>
	<path
		d="M144.386 27.9365H144.047C143.54 27.9365 143.202 28.3598 143.202 28.7831C143.202 29.291 143.625 29.6296 144.047 29.6296H144.386C144.893 29.6296 145.231 29.2064 145.231 28.7831C145.231 28.2751 144.808 27.9365 144.386 27.9365Z"
		fill="#FFE872"/>
	<path
		d="M148.021 27.9365H147.683C147.176 27.9365 146.837 28.3598 146.837 28.7831C146.837 29.291 147.26 29.6296 147.683 29.6296H148.021C148.528 29.6296 148.866 29.2064 148.866 28.7831C148.866 28.2751 148.444 27.9365 148.021 27.9365Z"
		fill="#FFE872"/>
	<path
		d="M144.386 30.4766H144.047C143.54 30.4766 143.202 30.8998 143.202 31.3231C143.202 31.8311 143.625 32.1697 144.047 32.1697H144.386C144.893 32.1697 145.231 31.7464 145.231 31.3231C145.231 30.8998 144.808 30.4766 144.386 30.4766Z"
		fill="#FFE872"/>
	<path
		d="M148.021 30.4766H147.683C147.176 30.4766 146.837 30.8998 146.837 31.3231C146.837 31.8311 147.26 32.1697 147.683 32.1697H148.021C148.528 32.1697 148.866 31.7464 148.866 31.3231C148.866 30.8998 148.444 30.4766 148.021 30.4766Z"
		fill="#FFE872"/>
	<path
		d="M149.627 23.3651C149.627 22.8572 149.204 22.5186 148.782 22.5186H143.287C142.78 22.5186 142.441 22.9418 142.441 23.3651C142.441 23.8731 142.864 24.2117 143.287 24.2117H148.782C149.204 24.2117 149.627 23.8731 149.627 23.3651Z"
		fill="#FFE872"/>
	<path
		d="M160.955 31.9155C160.447 31.9155 160.109 32.3388 160.109 32.7621V35.1324H139.483V19.8097H152.332C152.839 19.8097 153.177 19.3864 153.177 18.9631V12.2753C153.177 11.7673 152.755 11.4287 152.332 11.4287H136.101C135.594 11.4287 135.256 11.852 135.256 12.2753V18.9631C135.256 19.471 135.679 19.8097 136.101 19.8097H137.792V35.979C137.792 36.4869 138.215 36.8256 138.637 36.8256H160.955C161.462 36.8256 161.8 36.4023 161.8 35.979V32.7621C161.8 32.2541 161.462 31.9155 160.955 31.9155ZM136.862 13.1218H151.402V18.0319H136.862V13.1218Z"
		fill="#FFE872"/>
	<path
		d="M155.714 17.2703H160.109V19.3867C160.109 19.8946 160.532 20.2332 160.955 20.2332C161.462 20.2332 161.8 19.81 161.8 19.3867V16.4237C161.8 15.9158 161.377 15.5771 160.955 15.5771H155.714C155.206 15.5771 154.868 16.0004 154.868 16.4237C154.868 16.847 155.291 17.2703 155.714 17.2703Z"
		fill="#FFE872"/>
	<path
		d="M160.955 38.9419H138.638C138.131 38.9419 137.792 39.3652 137.792 39.7885C137.792 40.2964 138.215 40.635 138.638 40.635H160.955C161.462 40.635 161.8 40.2117 161.8 39.7885C161.8 39.3652 161.462 38.9419 160.955 38.9419Z"
		fill="#FFE872"/>
	<path
		d="M4.56445 46.476V38.8569H6.67783V44.6136H9.21388V38.8569H11.3273V44.6136H12.2571V47.9998H10.3974V46.476H4.56445Z"
		fill="#B31117"/>
	<path
		d="M13.0176 46.476V38.8569H17.5825V40.7194H15.131V41.8199H17.3289V43.513H15.131V44.6982H17.5825V46.5606H13.0176V46.476Z"
		fill="#B31117"/>
	<path
		d="M18.6816 46.476V38.8569H20.795V41.5659H23.4156V38.8569H25.529V46.476H23.4156V43.4284H20.795V46.476H18.6816Z"
		fill="#B31117"/>
	<path d="M27.9807 46.476V40.7194H26.29V38.8569H31.7848V40.7194H30.0941V46.476H27.9807Z" fill="#B31117"/>
	<path
		d="M32.5449 46.476V38.8569H35.7573C36.6026 38.8569 37.2789 39.1109 37.7861 39.6188C38.2933 40.1268 38.5469 40.7194 38.5469 41.3966C38.5469 42.1585 38.2933 42.7511 37.7861 43.2591C37.2789 43.767 36.6026 43.9363 35.7573 43.9363H34.6583V46.476H32.5449ZM34.6583 40.5501V42.3278H35.25C35.5882 42.3278 35.8418 42.2432 36.0109 42.1585C36.1799 41.9892 36.2645 41.8199 36.2645 41.4813C36.2645 41.1426 36.1799 40.9733 36.0109 40.804C35.8418 40.6347 35.5882 40.6347 35.25 40.6347H34.6583V40.5501Z"
		fill="#B31117"/>
	<path
		d="M42.0132 46.476V38.8569H44.1266V42.0739L46.409 38.8569H48.9451L46.0709 42.5818L49.0296 46.476H46.409L44.1266 43.1744V46.476H42.0132Z"
		fill="#B31117"/>
	<path
		d="M52.6647 46.73C51.4812 46.73 50.4668 46.3914 49.7059 45.6295C48.9451 44.8676 48.5225 43.9364 48.5225 42.6665C48.5225 41.3967 48.9451 40.4655 49.7059 39.7036C50.4668 38.9417 51.4812 38.603 52.6647 38.603C53.8482 38.603 54.7781 38.9417 55.6234 39.7036C56.3842 40.4655 56.8069 41.3967 56.8069 42.6665C56.8069 43.9364 56.3842 44.8676 55.6234 45.6295C54.8626 46.3067 53.8482 46.73 52.6647 46.73ZM52.6647 44.8676C53.1719 44.8676 53.6791 44.6983 54.0172 44.275C54.3554 43.9364 54.5244 43.3438 54.5244 42.6665C54.5244 41.9893 54.3554 41.3967 54.0172 41.0581C53.6791 40.6348 53.1719 40.4655 52.6647 40.4655C52.1575 40.4655 51.6503 40.6348 51.3121 41.0581C50.974 41.4813 50.8049 41.9893 50.8049 42.6665C50.8049 43.3438 50.974 43.9364 51.3121 44.275C51.6503 44.6983 52.1575 44.8676 52.6647 44.8676Z"
		fill="#B31117"/>
	<path
		d="M56.8066 46.476L57.9056 38.8569H60.019L61.3715 43.513L62.7241 38.8569H64.8375L65.9364 46.476H63.9076L63.3158 42.0739L62.0478 46.476H60.6953L59.4272 42.0739L58.8355 46.476H56.8066Z"
		fill="#B31117"/>
	<path d="M66.7822 38.8569H73.545V46.476H71.4317V40.7194H68.8956V46.476H66.7822V38.8569Z" fill="#B31117"/>
	<path
		d="M74.728 46.476V38.8569H79.2929V40.7194H76.8414V41.8199H79.0393V43.513H76.8414V44.6982H79.2929V46.5606H74.728V46.476Z"
		fill="#B31117"/>
	<path d="M81.9138 46.476V40.7194H80.2231V38.8569H85.7179V40.7194H84.0272V46.476H81.9138Z" fill="#B31117"/>
	<path
		d="M86.6479 46.476V38.8569H91.2128V40.7194H88.7613V41.8199H90.9592V43.513H88.7613V44.6982H91.2128V46.5606H86.6479V46.476Z"
		fill="#B31117"/>
	<path d="M92.396 46.476V38.8569H94.5094V41.5659H97.13V38.8569H99.2433V46.476H97.13V43.4284H94.5094V46.476H92.396Z"
		  fill="#B31117"/>
	<path
		d="M100.343 46.476V38.8569H102.456V44.6136H104.992V38.8569H107.106V44.6136H108.035V47.9998H106.176V46.476H100.343Z"
		fill="#B31117"/>
	<path
		d="M108.796 38.8569H110.825V43.4284L113.783 38.8569H115.897V46.476H113.868V41.9046L110.909 46.476H108.796V38.8569Z"
		fill="#B31117"/>
	<path
		d="M116.996 38.8569H119.024V43.4284L121.983 38.8569H124.097V46.476H122.068V41.9046L119.109 46.476H116.996V38.8569Z"
		fill="#B31117"/>
	<path
		d="M70.1641 8.6349H64.8384L64.5003 10.4973C64.7539 10.4127 65.0075 10.4127 65.2611 10.4127C65.5147 10.4127 65.8528 10.4127 66.191 10.4127C67.6281 10.4127 68.727 10.836 69.5724 11.6825C70.4177 12.5291 70.8404 13.6296 70.8404 14.8995C70.8404 16.5926 70.2486 17.9471 69.0651 18.963C67.8817 19.9788 66.36 20.4021 64.6693 20.4021C63.824 20.4021 62.9786 20.3175 62.3023 20.0635C61.5415 19.8095 60.8652 19.5556 60.189 19.1323L60.5271 15.6614H60.9498C61.5415 16.254 62.0487 16.7619 62.6405 17.0159C63.1477 17.2698 63.824 17.4391 64.5003 17.4391C65.3456 17.4391 66.0219 17.2698 66.6136 16.7619C67.1208 16.3386 67.3744 15.6614 67.3744 14.8148C67.3744 14.1376 67.1208 13.545 66.5291 13.1217C65.9373 12.6984 65.1765 12.5291 64.1621 12.5291C63.7394 12.5291 63.3168 12.6137 62.9786 12.6984C62.5559 12.7831 62.1333 12.9524 61.7106 13.1217H61.0343L62.6405 5.41797H70.1641V8.6349Z"
		fill="#B31117"/>
	<path
		d="M78.787 19.9791V16.5082H72.2778V13.5453L77.519 5.50293H82.253V13.4606H83.8591V16.5082H82.253V19.9791H78.787ZM78.787 13.4606V8.38124L75.5747 13.4606H78.787Z"
		fill="#B31117"/>
	<path d="M86.3105 12.6987H93.327V15.9157H86.3105V12.6987Z" fill="#B31117"/>
	<path
		d="M102.118 19.9788V17.9471C99.9204 17.9471 98.2297 17.4391 97.0462 16.4233C95.8627 15.4074 95.271 13.9682 95.271 12.1058C95.271 10.328 95.8627 8.88888 97.0462 7.78834C98.2297 6.77247 99.9204 6.26453 102.118 6.26453V4.74072H106.176V6.34919C108.374 6.26453 110.065 6.77247 111.248 7.873C112.432 8.88888 113.023 10.328 113.023 12.1905C113.023 14.0529 112.432 15.4921 111.248 16.5079C110.065 17.5238 108.374 18.0317 106.176 18.0317V20.0635H102.118V19.9788ZM102.372 15.0688V9.31216C101.442 9.31216 100.681 9.56612 100.089 10.0741C99.5823 10.582 99.2441 11.2592 99.2441 12.1905C99.2441 13.1217 99.4978 13.8836 100.005 14.3915C100.681 14.8148 101.442 15.0688 102.372 15.0688ZM105.838 9.2275V14.9841C106.768 14.9841 107.529 14.7302 108.12 14.2222C108.628 13.7143 108.966 12.9524 108.966 12.0212C108.966 11.0899 108.712 10.4127 108.12 9.90475C107.529 9.48147 106.768 9.2275 105.838 9.2275Z"
		fill="#B31117"/>
	<path
		d="M115.052 9.22725L113.615 6.4336C114.376 6.01032 115.137 5.67169 115.982 5.41773C116.828 5.16376 117.673 5.0791 118.518 5.0791C120.125 5.0791 121.477 5.50238 122.491 6.26429C123.506 7.02619 124.013 8.04207 124.013 9.22725C124.013 9.98916 123.76 10.6664 123.337 11.259C122.914 11.8516 122.322 12.2749 121.646 12.5288V12.6135C122.491 12.8675 123.083 13.2908 123.59 13.8833C124.098 14.4759 124.351 15.1532 124.351 16.0844C124.351 17.4389 123.76 18.5394 122.661 19.3013C121.562 20.0632 120.209 20.4865 118.518 20.4865C117.335 20.4865 116.32 20.3172 115.56 19.9786C114.714 19.64 113.869 19.132 112.854 18.2855L114.545 15.5765C115.052 16.0844 115.644 16.5077 116.32 16.7617C116.912 17.1003 117.504 17.1849 118.096 17.1849C118.772 17.1849 119.364 17.0156 119.702 16.7617C120.04 16.423 120.209 16.0844 120.209 15.6611C120.209 15.1532 120.04 14.8146 119.617 14.5606C119.195 14.3066 118.603 14.222 117.927 14.1373H115.644V11.259H117.927C118.603 11.259 119.11 11.1743 119.533 10.9204C119.871 10.6664 120.125 10.3278 120.125 9.73519C120.125 9.31191 119.955 8.97329 119.533 8.71932C119.195 8.46535 118.687 8.29604 118.011 8.29604C117.504 8.29604 117.081 8.38069 116.574 8.55001C116.151 8.63466 115.644 8.88863 115.052 9.22725Z"
		fill="#B31117"/>
</svg>
